<mxfile host="app.diagrams.net" modified="2024-04-26T00:49:23.940Z" agent="Mozilla/5.0 (Windows NT 10.0; Win64; x64; rv:126.0) Gecko/20100101 Firefox/126.0" etag="P9zsj0ShQlOrpn2gbbwv" version="24.3.0" type="github">
  <diagram name="PÃ¡gina-1" id="wPlQua5bF2FVovKbeShm">
    <mxGraphModel dx="1313" dy="708" grid="1" gridSize="10" guides="1" tooltips="1" connect="1" arrows="1" fold="1" page="1" pageScale="1" pageWidth="1100" pageHeight="850" background="#FFFFFF" math="0" shadow="0">
      <root>
        <mxCell id="0" />
        <mxCell id="1" parent="0" />
        <mxCell id="KuNG9BQ-oSU_4KA0rC_R-58" value="OrdenCompra" style="swimlane;childLayout=stackLayout;horizontal=1;startSize=50;horizontalStack=0;rounded=1;fontSize=14;fontStyle=0;strokeWidth=2;resizeParent=0;resizeLast=1;shadow=0;align=center;arcSize=4;whiteSpace=wrap;html=1;swimlaneLine=1;fillColor=none;labelBackgroundColor=none;labelBorderColor=none;textShadow=0;" parent="1" vertex="1">
          <mxGeometry x="770" y="40" width="160" height="112.5" as="geometry">
            <mxRectangle x="290" y="77.5" width="130" height="50" as="alternateBounds" />
          </mxGeometry>
        </mxCell>
        <mxCell id="KuNG9BQ-oSU_4KA0rC_R-59" value="&lt;div&gt;PK&lt;span style=&quot;white-space: pre;&quot;&gt;&#x9;&lt;/span&gt;id_ordencompra&lt;br&gt;FK&lt;span style=&quot;white-space: pre;&quot;&gt;&#x9;&lt;/span&gt;id_ordenentrega&lt;/div&gt;&lt;div&gt;&lt;span style=&quot;white-space: pre;&quot;&gt;&#x9;&lt;/span&gt;id_ordencompraportal&lt;/div&gt;" style="align=left;spacingLeft=4;fontSize=12;verticalAlign=top;resizable=0;rotatable=0;part=1;html=1;fontStyle=0;strokeWidth=2;shadow=0;swimlaneLine=1;fillColor=none;labelBackgroundColor=none;labelBorderColor=none;textShadow=0;" parent="KuNG9BQ-oSU_4KA0rC_R-58" vertex="1">
          <mxGeometry y="50" width="160" height="62.5" as="geometry" />
        </mxCell>
        <mxCell id="KuNG9BQ-oSU_4KA0rC_R-62" value="&lt;div&gt;OrdenEntrega&lt;/div&gt;" style="swimlane;childLayout=stackLayout;horizontal=1;startSize=50;horizontalStack=0;rounded=1;fontSize=14;fontStyle=0;strokeWidth=2;resizeParent=0;resizeLast=1;shadow=0;align=center;arcSize=4;whiteSpace=wrap;html=1;swimlaneLine=1;fillColor=none;labelBackgroundColor=none;labelBorderColor=none;textShadow=0;" parent="1" vertex="1">
          <mxGeometry x="450" y="140" width="160" height="130" as="geometry" />
        </mxCell>
        <mxCell id="KuNG9BQ-oSU_4KA0rC_R-63" value="&lt;div&gt;PK&lt;span style=&quot;white-space: pre;&quot;&gt;&#x9;&lt;/span&gt;id_ordenentrega&lt;/div&gt;&lt;div&gt;&lt;span style=&quot;white-space: pre;&quot;&gt;&#x9;&lt;/span&gt;id_ordencompraportal&lt;/div&gt;&lt;div&gt;&lt;span style=&quot;white-space: pre;&quot;&gt;&#x9;&lt;/span&gt;id_proveedor&lt;/div&gt;&lt;div&gt;&lt;span style=&quot;white-space: pre;&quot;&gt;&#x9;&lt;/span&gt;fechaPedido&lt;br&gt;&lt;/div&gt;&lt;span style=&quot;white-space: pre;&quot;&gt;&lt;/span&gt;" style="align=left;spacingLeft=4;fontSize=12;verticalAlign=top;resizable=0;rotatable=0;part=1;html=1;fontStyle=0;strokeWidth=2;shadow=0;swimlaneLine=1;fillColor=none;labelBackgroundColor=none;labelBorderColor=none;textShadow=0;" parent="KuNG9BQ-oSU_4KA0rC_R-62" vertex="1">
          <mxGeometry y="50" width="160" height="80" as="geometry" />
        </mxCell>
        <mxCell id="KuNG9BQ-oSU_4KA0rC_R-80" value="" style="edgeStyle=entityRelationEdgeStyle;fontSize=12;html=1;endArrow=ERoneToMany;rounded=0;entryX=-0.01;entryY=0.368;entryDx=0;entryDy=0;entryPerimeter=0;exitX=1;exitY=0;exitDx=0;exitDy=0;fontStyle=0;strokeWidth=2;shadow=0;swimlaneLine=1;fillColor=none;labelBackgroundColor=none;labelBorderColor=none;textShadow=0;" parent="1" target="KuNG9BQ-oSU_4KA0rC_R-59" edge="1" source="KuNG9BQ-oSU_4KA0rC_R-63">
          <mxGeometry width="100" height="100" relative="1" as="geometry">
            <mxPoint x="801" y="140" as="sourcePoint" />
            <mxPoint x="1061" y="260" as="targetPoint" />
          </mxGeometry>
        </mxCell>
        <mxCell id="KuNG9BQ-oSU_4KA0rC_R-81" value="&lt;div&gt;Producto&lt;/div&gt;" style="swimlane;childLayout=stackLayout;horizontal=1;startSize=50;horizontalStack=0;rounded=1;fontSize=14;fontStyle=0;strokeWidth=2;resizeParent=0;resizeLast=1;shadow=0;align=center;arcSize=4;whiteSpace=wrap;html=1;swimlaneLine=1;fillColor=none;labelBackgroundColor=none;labelBorderColor=none;textShadow=0;" parent="1" vertex="1">
          <mxGeometry x="770" y="240" width="180" height="169" as="geometry">
            <mxRectangle x="290" y="231" width="100" height="50" as="alternateBounds" />
          </mxGeometry>
        </mxCell>
        <mxCell id="KuNG9BQ-oSU_4KA0rC_R-82" value="&lt;div&gt;PK&lt;span style=&quot;white-space: pre;&quot;&gt;&#x9;&lt;/span&gt;id_producto&lt;br&gt;FK&lt;span style=&quot;white-space: pre;&quot;&gt;&#x9;&lt;/span&gt;id_ordenentrega&lt;/div&gt;&lt;div&gt;&lt;span style=&quot;white-space: pre;&quot;&gt;&#x9;&lt;/span&gt;id_ordencompraportal&lt;br&gt;&lt;/div&gt;&lt;div&gt;&lt;span style=&quot;white-space: pre;&quot;&gt;&#x9;&lt;/span&gt;codigo&lt;/div&gt;&lt;div&gt;&lt;span style=&quot;white-space: pre;&quot;&gt;&#x9;&lt;/span&gt;descripcion&lt;/div&gt;&lt;div&gt;&lt;span style=&quot;white-space: pre;&quot;&gt;&#x9;cantidad&lt;/span&gt;PiezasOrdenadas&lt;/div&gt;&lt;div&gt;&lt;span style=&quot;white-space: pre;&quot;&gt;&#x9;&lt;/span&gt;cantidadPiezasEntregar&lt;/div&gt;&lt;div&gt;&lt;br&gt;&lt;/div&gt;" style="align=left;spacingLeft=4;fontSize=12;verticalAlign=top;resizable=0;rotatable=0;part=1;html=1;fontStyle=0;strokeWidth=2;shadow=0;swimlaneLine=1;fillColor=none;labelBackgroundColor=none;labelBorderColor=none;textShadow=0;" parent="KuNG9BQ-oSU_4KA0rC_R-81" vertex="1">
          <mxGeometry y="50" width="180" height="119" as="geometry" />
        </mxCell>
        <mxCell id="KuNG9BQ-oSU_4KA0rC_R-83" value="" style="edgeStyle=entityRelationEdgeStyle;fontSize=12;html=1;endArrow=ERoneToMany;rounded=0;exitX=1;exitY=0;exitDx=0;exitDy=0;entryX=0;entryY=0.239;entryDx=0;entryDy=0;entryPerimeter=0;fontStyle=0;strokeWidth=2;shadow=0;swimlaneLine=1;fillColor=none;labelBackgroundColor=none;labelBorderColor=none;textShadow=0;" parent="1" source="KuNG9BQ-oSU_4KA0rC_R-63" target="KuNG9BQ-oSU_4KA0rC_R-82" edge="1">
          <mxGeometry width="100" height="100" relative="1" as="geometry">
            <mxPoint x="921" y="340" as="sourcePoint" />
            <mxPoint x="1021" y="240" as="targetPoint" />
          </mxGeometry>
        </mxCell>
        <mxCell id="KuNG9BQ-oSU_4KA0rC_R-84" value="Operador" style="swimlane;childLayout=stackLayout;horizontal=1;startSize=50;horizontalStack=0;rounded=1;fontSize=14;fontStyle=0;strokeWidth=2;resizeParent=0;resizeLast=1;shadow=0;align=center;arcSize=4;whiteSpace=wrap;html=1;swimlaneLine=1;fillColor=none;labelBackgroundColor=none;labelBorderColor=none;textShadow=0;" parent="1" vertex="1">
          <mxGeometry x="130" y="540" width="160" height="151" as="geometry" />
        </mxCell>
        <mxCell id="KuNG9BQ-oSU_4KA0rC_R-85" value="&lt;div&gt;PK&lt;span style=&quot;white-space: pre;&quot;&gt;&#x9;&lt;/span&gt;id_operador&lt;/div&gt;&lt;div&gt;&lt;span style=&quot;white-space: pre;&quot;&gt;&#x9;&lt;/span&gt;nombre&lt;/div&gt;&lt;div&gt;&lt;span style=&quot;white-space: pre;&quot;&gt;&#x9;&lt;/span&gt;apellidoParterno&lt;/div&gt;&lt;div&gt;&lt;span style=&quot;white-space: pre;&quot;&gt;&#x9;&lt;/span&gt;apellidoMaterno&lt;/div&gt;&lt;div&gt;&lt;span style=&quot;white-space: pre;&quot;&gt;&#x9;&lt;/span&gt;imgLicencia&lt;/div&gt;&lt;div&gt;&lt;span style=&quot;white-space: pre;&quot;&gt;&#x9;&lt;/span&gt;imgOperador&lt;br&gt;&lt;/div&gt;" style="align=left;spacingLeft=4;fontSize=12;verticalAlign=top;resizable=0;rotatable=0;part=1;html=1;fontStyle=0;strokeWidth=2;shadow=0;swimlaneLine=1;fillColor=none;labelBackgroundColor=none;labelBorderColor=none;textShadow=0;" parent="KuNG9BQ-oSU_4KA0rC_R-84" vertex="1">
          <mxGeometry y="50" width="160" height="101" as="geometry" />
        </mxCell>
        <mxCell id="RmeCmHrI5afwPTupkaPb-1" value="Unidad" style="swimlane;childLayout=stackLayout;horizontal=1;startSize=50;horizontalStack=0;rounded=1;fontSize=14;fontStyle=0;strokeWidth=2;resizeParent=0;resizeLast=1;shadow=0;align=center;arcSize=4;whiteSpace=wrap;html=1;swimlaneLine=1;fillColor=none;labelBackgroundColor=none;labelBorderColor=none;textShadow=0;" vertex="1" parent="1">
          <mxGeometry x="130" y="180" width="160" height="140" as="geometry" />
        </mxCell>
        <mxCell id="RmeCmHrI5afwPTupkaPb-2" value="&lt;div&gt;PK&lt;span style=&quot;white-space: pre;&quot;&gt;&#x9;&lt;/span&gt;id_unidad&lt;/div&gt;&lt;div&gt;&lt;span style=&quot;white-space: pre;&quot;&gt;&#x9;&lt;/span&gt;tipoTransporte&lt;/div&gt;&lt;div&gt;&lt;span style=&quot;white-space: pre;&quot;&gt;&#x9;&lt;/span&gt;placas&lt;/div&gt;&lt;div&gt;&lt;span style=&quot;white-space: pre;&quot;&gt;&#x9;&lt;/span&gt;contenedores&lt;/div&gt;&lt;div&gt;&lt;span style=&quot;white-space: pre;&quot;&gt;&#x9;&lt;/span&gt;imgUnidad&lt;br&gt;&lt;/div&gt;" style="align=left;spacingLeft=4;fontSize=12;verticalAlign=top;resizable=0;rotatable=0;part=1;html=1;fontStyle=0;strokeWidth=2;shadow=0;swimlaneLine=1;fillColor=none;labelBackgroundColor=none;labelBorderColor=none;textShadow=0;" vertex="1" parent="RmeCmHrI5afwPTupkaPb-1">
          <mxGeometry y="50" width="160" height="90" as="geometry" />
        </mxCell>
        <mxCell id="RmeCmHrI5afwPTupkaPb-6" value="&lt;div&gt;Cita&lt;/div&gt;" style="swimlane;childLayout=stackLayout;horizontal=1;startSize=50;horizontalStack=0;rounded=1;fontSize=14;fontStyle=0;strokeWidth=2;resizeParent=0;resizeLast=1;shadow=0;align=center;arcSize=4;whiteSpace=wrap;html=1;swimlaneLine=1;fillColor=none;labelBackgroundColor=none;labelBorderColor=none;textShadow=0;" vertex="1" parent="1">
          <mxGeometry x="450" y="425" width="160" height="205" as="geometry" />
        </mxCell>
        <mxCell id="RmeCmHrI5afwPTupkaPb-7" value="&lt;div&gt;PK&lt;span style=&quot;white-space: pre;&quot;&gt;&#x9;&lt;/span&gt;id_cita&lt;/div&gt;&lt;div&gt;FK&lt;span style=&quot;white-space: pre;&quot;&gt;&#x9;&lt;/span&gt;id_ordenentrega&lt;/div&gt;&lt;div&gt;&lt;span style=&quot;white-space: pre;&quot;&gt;FK&lt;span style=&quot;white-space: pre;&quot;&gt;&#x9;&lt;/span&gt;id_operador&lt;/span&gt;&lt;/div&gt;&lt;div&gt;&lt;span style=&quot;white-space: pre;&quot;&gt;FK&lt;span style=&quot;white-space: pre;&quot;&gt;&#x9;&lt;/span&gt;id_unidad&lt;/span&gt;&lt;/div&gt;&lt;div&gt;&lt;span style=&quot;white-space: pre;&quot;&gt;&lt;span style=&quot;white-space: pre;&quot;&gt;&#x9;&lt;/span&gt;fechaEntrega&lt;/span&gt;&lt;/div&gt;&lt;div&gt;&lt;span style=&quot;white-space: pre;&quot;&gt;&lt;span style=&quot;white-space: pre;&quot;&gt;&#x9;&lt;/span&gt;horaEntrega&lt;br&gt;&lt;/span&gt;&lt;/div&gt;&lt;div&gt;&lt;span style=&quot;white-space: pre;&quot;&gt;&lt;span style=&quot;white-space: pre;&quot;&gt;&#x9;&lt;/span&gt;comentarios&lt;br&gt;&lt;/span&gt;&lt;/div&gt;&lt;div&gt;&lt;span style=&quot;white-space: pre;&quot;&gt;&lt;span style=&quot;white-space: pre;&quot;&gt;&#x9;&lt;/span&gt;codigoQr&lt;br&gt;&lt;/span&gt;&lt;/div&gt;&lt;div&gt;&lt;span style=&quot;white-space: pre;&quot;&gt;&lt;span style=&quot;white-space: pre;&quot;&gt;&#x9;&lt;/span&gt;estatus&lt;br&gt;&lt;/span&gt;&lt;/div&gt;" style="align=left;spacingLeft=4;fontSize=12;verticalAlign=top;resizable=0;rotatable=0;part=1;html=1;fontStyle=0;strokeWidth=2;shadow=0;swimlaneLine=1;fillColor=none;labelBackgroundColor=none;labelBorderColor=none;textShadow=0;" vertex="1" parent="RmeCmHrI5afwPTupkaPb-6">
          <mxGeometry y="50" width="160" height="155" as="geometry" />
        </mxCell>
        <mxCell id="RmeCmHrI5afwPTupkaPb-14" value="" style="edgeStyle=entityRelationEdgeStyle;fontSize=12;html=1;endArrow=ERmandOne;startArrow=ERmandOne;rounded=0;exitX=1;exitY=0;exitDx=0;exitDy=0;entryX=0;entryY=0.5;entryDx=0;entryDy=0;fontStyle=0;strokeWidth=2;shadow=0;swimlaneLine=1;fillColor=none;labelBackgroundColor=none;labelBorderColor=none;textShadow=0;" edge="1" parent="1" source="KuNG9BQ-oSU_4KA0rC_R-85" target="RmeCmHrI5afwPTupkaPb-7">
          <mxGeometry width="100" height="100" relative="1" as="geometry">
            <mxPoint x="470" y="400" as="sourcePoint" />
            <mxPoint x="450" y="450" as="targetPoint" />
          </mxGeometry>
        </mxCell>
        <mxCell id="RmeCmHrI5afwPTupkaPb-15" value="" style="edgeStyle=entityRelationEdgeStyle;fontSize=12;html=1;endArrow=ERmandOne;startArrow=ERmandOne;rounded=0;entryX=1;entryY=0;entryDx=0;entryDy=0;exitX=-0.003;exitY=0.661;exitDx=0;exitDy=0;exitPerimeter=0;fontStyle=0;strokeWidth=2;shadow=0;swimlaneLine=1;fillColor=none;labelBackgroundColor=none;labelBorderColor=none;textShadow=0;" edge="1" parent="1" source="RmeCmHrI5afwPTupkaPb-7" target="RmeCmHrI5afwPTupkaPb-2">
          <mxGeometry width="100" height="100" relative="1" as="geometry">
            <mxPoint x="310" y="350" as="sourcePoint" />
            <mxPoint x="410" y="250" as="targetPoint" />
            <Array as="points">
              <mxPoint x="380" y="230" />
            </Array>
          </mxGeometry>
        </mxCell>
        <mxCell id="RmeCmHrI5afwPTupkaPb-16" value="" style="edgeStyle=entityRelationEdgeStyle;fontSize=12;html=1;endArrow=ERmandOne;rounded=0;exitX=1;exitY=0.25;exitDx=0;exitDy=0;fontStyle=0;strokeWidth=2;shadow=0;swimlaneLine=1;fillColor=none;labelBackgroundColor=none;labelBorderColor=none;textShadow=0;" edge="1" parent="1" source="RmeCmHrI5afwPTupkaPb-7">
          <mxGeometry width="100" height="100" relative="1" as="geometry">
            <mxPoint x="710" y="497" as="sourcePoint" />
            <mxPoint x="450" y="190" as="targetPoint" />
            <Array as="points">
              <mxPoint x="420" y="350" />
              <mxPoint x="390" y="420" />
              <mxPoint x="440" y="380" />
            </Array>
          </mxGeometry>
        </mxCell>
        <mxCell id="RmeCmHrI5afwPTupkaPb-17" value="Log" style="whiteSpace=wrap;html=1;align=center;fontStyle=0;strokeWidth=2;shadow=0;swimlaneLine=1;fillColor=none;labelBackgroundColor=none;labelBorderColor=none;textShadow=0;" vertex="1" parent="1">
          <mxGeometry x="810" y="560.5" width="100" height="40" as="geometry" />
        </mxCell>
        <mxCell id="RmeCmHrI5afwPTupkaPb-18" value="Notificaciones" style="whiteSpace=wrap;html=1;align=center;fontStyle=0;strokeWidth=2;shadow=0;swimlaneLine=1;fillColor=none;labelBackgroundColor=none;labelBorderColor=none;textShadow=0;" vertex="1" parent="1">
          <mxGeometry x="810" y="630.5" width="100" height="40" as="geometry" />
        </mxCell>
      </root>
    </mxGraphModel>
  </diagram>
</mxfile>
